<?xml version="1.0" encoding="UTF-8"?>
<svg width="77px" height="12px" viewBox="0 0 77 12" version="1.1" xmlns="http://www.w3.org/2000/svg" xmlns:xlink="http://www.w3.org/1999/xlink">
    <title>形状结合</title>
    <g id="页面-3" stroke="none" stroke-width="1" fill="none" fill-rule="evenodd">
        <g id="编组-6" transform="translate(-124, -110)" fill="#000000" fill-rule="nonzero">
            <g id="编组-5备份" transform="translate(0, 76)">
                <path d="M125.404,41.687125 C125.404,41.026375 125.734375,40.696 126.395125,40.696 L133.604875,40.696 C134.265625,40.696 134.596,41.026375 134.596,41.687125 L134.596,44.684875 C134.596,45.345625 134.265625,45.676 133.604875,45.676 L126.395125,45.676 C125.734375,45.676 125.404,45.345625 125.404,44.684875 L125.404,41.687125 Z M133.156,41.992 L126.844,41.992 L126.844,44.38 L133.156,44.38 L133.156,41.992 Z M133.392437,42.556 C133.714812,42.556 133.876,42.7171875 133.876,43.0395625 L133.876,43.3204375 C133.876,43.6428125 133.714812,43.804 133.392437,43.804 L126.607562,43.804 C126.285187,43.804 126.124,43.6428125 126.124,43.3204375 L126.124,43.0395625 C126.124,42.7171875 126.285187,42.556 126.607562,42.556 L133.392437,42.556 Z M127.745312,35.764 C128.118812,35.764 128.296,35.9475625 128.276875,36.3146875 C128.206625,37.2863125 127.946219,38.1423125 127.495656,38.8826875 C127.045094,39.6230625 126.3955,40.2060625 125.546875,40.6316875 C125.385625,40.7163125 125.245531,40.7326875 125.126594,40.6808125 C125.007656,40.6289375 124.912312,40.5191875 124.840562,40.3515625 L124.719437,40.0564375 C124.590187,39.7291875 124.69,39.47775 125.018875,39.302125 C125.6275,38.990125 126.075062,38.5811875 126.361562,38.0753125 C126.648062,37.5694375 126.8145,36.983375 126.860875,36.317125 C126.88,35.948375 127.069937,35.764 127.430687,35.764 L127.745312,35.764 Z M129.770875,37.252 C130.099625,37.252 130.264,37.416375 130.264,37.745125 L130.264,38.030875 C130.264,38.359625 130.099625,38.524 129.770875,38.524 L124.985125,38.524 C124.656375,38.524 124.492,38.359625 124.492,38.030875 L124.492,37.745125 C124.492,37.416375 124.656375,37.252 124.985125,37.252 L129.770875,37.252 Z M128.196437,37.7820625 C128.370437,37.7358125 128.516906,37.7418125 128.635844,37.8000625 C128.754781,37.8583125 128.85575,37.9744375 128.93875,38.1484375 C129.0555,38.3873125 129.210406,38.604875 129.403469,38.801125 C129.596531,38.997375 129.803,39.1651875 130.022875,39.3045625 C130.34525,39.4801875 130.435375,39.731625 130.29325,40.058875 L130.16275,40.349125 C130.012625,40.69075 129.774,40.7745625 129.446875,40.6005625 C128.945625,40.3269375 128.521687,39.997625 128.175062,39.612625 C127.828437,39.227625 127.618187,38.87075 127.544312,38.542 C127.408687,38.195625 127.524437,37.9729375 127.891562,37.8739375 L128.196437,37.7820625 Z M125.68375,34.732 C126.05725,34.732 126.244,34.8389375 126.244,35.0528125 L126.244,35.128 L129.674875,35.128 C130.003625,35.128 130.168,35.292375 130.168,35.621125 L130.168,35.906875 C130.168,36.235625 130.003625,36.4 129.674875,36.4 L125.785562,36.4 C125.464812,36.4 125.221031,36.3181875 125.054219,36.1545625 C124.887406,35.9909375 124.804,35.7455625 124.804,35.4184375 L124.804,35.0528125 C124.804,34.8389375 124.99075,34.732 125.36425,34.732 L125.68375,34.732 Z M130.696,36.0878125 C130.696,35.4079375 131.035937,35.068 131.715812,35.068 L134.128187,35.068 C134.808062,35.068 135.148,35.4079375 135.148,36.0878125 L135.148,39.0041875 C135.148,39.6840625 134.808062,40.024 134.128187,40.024 L131.715812,40.024 C131.035937,40.024 130.696,39.6840625 130.696,39.0041875 L130.696,36.0878125 Z M133.732,36.484 L132.112,36.484 L132.112,38.608 L133.732,38.608 L133.732,36.484 Z M140.267375,35.0183125 C140.545125,35.2130625 140.587437,35.4485 140.394313,35.724625 L139.604,36.856 L141.824,36.856 L141.824,36.4684375 C141.824,36.1268125 141.994812,35.956 142.336437,35.956 L142.631562,35.956 C142.973187,35.956 143.144,36.1268125 143.144,36.4684375 L143.144,37.223125 C143.144,37.531125 143.063812,37.7669375 142.903437,37.9305625 C142.743062,38.0941875 142.505625,38.176 142.191125,38.176 L138.898625,38.176 C138.303375,38.176 137.938312,38.051125 137.803437,37.801375 C137.668562,37.551625 137.774312,37.180125 138.120687,36.686875 L139.314312,34.980625 C139.509062,34.702875 139.7445,34.6605625 140.020625,34.8536875 L140.267375,35.0183125 Z M141.965562,38.788 C142.607187,38.788 142.928,39.1088125 142.928,39.7504375 L142.928,44.8095625 C142.928,45.4511875 142.607187,45.772 141.965562,45.772 L141.244438,45.772 C140.902812,45.772 140.732,45.6011875 140.732,45.2595625 L140.732,44.9644375 C140.732,44.6228125 140.902812,44.452 141.244438,44.452 L141.584,44.452 L141.584,40.108 L139.232,40.108 L139.232,45.298 C139.232,45.646 139.058,45.82 138.71,45.82 L138.41,45.82 C138.062,45.82 137.888,45.646 137.888,45.298 L137.888,39.7504375 C137.888,39.1088125 138.208812,38.788 138.850437,38.788 L141.965562,38.788 Z M141.719562,40.732 C142.061187,40.732 142.232,40.9028125 142.232,41.2444375 L142.232,41.5395625 C142.232,41.8811875 142.061187,42.052 141.719562,42.052 L139.096437,42.052 C138.754812,42.052 138.584,41.8811875 138.584,41.5395625 L138.584,41.2444375 C138.584,40.9028125 138.754812,40.732 139.096437,40.732 L141.719562,40.732 Z M141.719562,42.676 C142.061187,42.676 142.232,42.8468125 142.232,43.1884375 L142.232,43.4835625 C142.232,43.8251875 142.061187,43.996 141.719562,43.996 L139.096437,43.996 C138.754812,43.996 138.584,43.8251875 138.584,43.4835625 L138.584,43.1884375 C138.584,42.8468125 138.754812,42.676 139.096437,42.676 L141.719562,42.676 Z M144.606875,34.78 C144.967625,34.78 145.148,34.960375 145.148,35.321125 L145.148,38.596 L147.164,38.596 L147.164,38.345125 C147.164,37.984375 147.344375,37.804 147.705125,37.804 L148.014875,37.804 C148.375625,37.804 148.556,37.984375 148.556,38.345125 L148.556,39.00175 C148.556,39.328875 148.471,39.5790313 148.301,39.7522188 C148.131,39.9254063 147.87925,40.012 147.54575,40.012 L144.76625,40.012 C144.439125,40.012 144.188969,39.927 144.015781,39.757 C143.842594,39.587 143.756,39.33525 143.756,39.00175 L143.756,35.321125 C143.756,34.960375 143.936375,34.78 144.297125,34.78 L144.606875,34.78 Z M147.258875,35.5043125 C147.43275,35.4324375 147.579156,35.4160625 147.698094,35.4551875 C147.817031,35.4943125 147.918812,35.59125 148.003437,35.746 L148.148562,36.022 C148.316187,36.349125 148.235625,36.58775 147.906875,36.737875 C147.561,36.896375 147.212719,37.0392813 146.862031,37.1665938 C146.511344,37.2939063 146.262,37.3696875 146.114,37.3939375 C145.94,37.4466875 145.798344,37.4407188 145.689031,37.3760313 C145.579719,37.3113438 145.502687,37.192 145.457938,37.018 L145.390062,36.718 C145.300687,36.37 145.43,36.148125 145.778,36.052375 C146.304,35.888875 146.797625,35.7061875 147.258875,35.5043125 Z M144.606875,40.228 C144.967625,40.228 145.148,40.408375 145.148,40.769125 L145.148,44.296 L147.164,44.296 L147.164,43.973125 C147.164,43.612375 147.344375,43.432 147.705125,43.432 L148.014875,43.432 C148.375625,43.432 148.556,43.612375 148.556,43.973125 L148.556,44.70175 C148.556,45.028875 148.471,45.2790313 148.301,45.4522188 C148.131,45.6254063 147.87925,45.712 147.54575,45.712 L144.76625,45.712 C144.439125,45.712 144.188969,45.627 144.015781,45.457 C143.842594,45.287 143.756,45.03525 143.756,44.70175 L143.756,40.769125 C143.756,40.408375 143.936375,40.228 144.297125,40.228 L144.606875,40.228 Z M147.364438,41.0074375 C147.691562,40.8461875 147.93975,40.920375 148.109,41.23 L148.259,41.506 C148.433,41.82675 148.358812,42.0685625 148.036437,42.2314375 C147.502812,42.4926875 146.862,42.7361875 146.114,42.9619375 C145.94,43.0146875 145.798344,43.0087188 145.689031,42.9440313 C145.579719,42.8793438 145.502687,42.76 145.457938,42.586 L145.390062,42.286 C145.300687,41.938 145.43,41.716125 145.778,41.620375 C146.288,41.47925 146.816812,41.2749375 147.364438,41.0074375 Z M158.101312,42.292 C158.468437,42.292 158.652,42.4755625 158.652,42.8426875 L158.652,43.1573125 C158.652,43.5244375 158.468437,43.708 158.101312,43.708 L153.898687,43.708 C153.531562,43.708 153.348,43.5244375 153.348,43.1573125 L153.348,42.8426875 C153.348,42.4755625 153.531562,42.292 153.898687,42.292 L158.101312,42.292 Z M160.777312,36.352 C161.144437,36.352 161.328,36.5355625 161.328,36.9026875 L161.328,37.2173125 C161.328,37.5844375 161.144437,37.768 160.777312,37.768 L151.222687,37.768 C150.855562,37.768 150.672,37.5844375 150.672,37.2173125 L150.672,36.9026875 C150.672,36.5355625 150.855562,36.352 151.222687,36.352 L160.777312,36.352 Z M156.162187,34.78 C156.542062,34.78 156.732,34.9699375 156.732,35.3498125 L156.732,45.2501875 C156.732,45.6300625 156.542062,45.82 156.162187,45.82 L155.837812,45.82 C155.457937,45.82 155.268,45.6300625 155.268,45.2501875 L155.268,35.3498125 C155.268,34.9699375 155.457937,34.78 155.837812,34.78 L156.162187,34.78 Z M153.589312,38.4450625 C153.956437,38.5216875 154.101687,38.7435625 154.025062,39.1106875 C153.797812,40.1191875 153.498531,41.105625 153.127219,42.07 C152.755906,43.034375 152.322062,43.9351875 151.825687,44.7724375 C151.630937,45.0948125 151.376375,45.15625 151.062,44.95675 L150.786,44.78725 C150.624875,44.6835 150.529531,44.5689688 150.499969,44.4436563 C150.470406,44.3183438 150.504312,44.1719375 150.601687,44.0044375 C151.102687,43.1609375 151.523656,42.28625 151.864594,41.380375 C152.205531,40.4745 152.452875,39.62275 152.606625,38.825125 C152.6865,38.456375 152.909187,38.3103125 153.274687,38.3869375 L153.589312,38.4450625 Z M158.725312,38.3869375 C159.092437,38.3103125 159.314312,38.4555625 159.390937,38.8226875 C159.808562,40.7149375 160.477687,42.4421875 161.398312,44.0044375 C161.495687,44.1719375 161.529594,44.3183438 161.500031,44.4436563 C161.470469,44.5689688 161.375125,44.6835 161.214,44.78725 L160.938,44.95675 C160.623625,45.15625 160.369062,45.0948125 160.174312,44.7724375 C159.633312,43.8569375 159.172344,42.89825 158.791406,41.896375 C158.410469,40.8945 158.139125,39.96675 157.977375,39.113125 C157.899125,38.744375 158.043562,38.5216875 158.410687,38.4450625 L158.725312,38.3869375 Z M173.954875,36.328 C174.315625,36.328 174.496,36.508375 174.496,36.869125 L174.496,37.178875 C174.496,37.539625 174.315625,37.72 173.954875,37.72 L167.165125,37.72 C166.804375,37.72 166.624,37.539625 166.624,37.178875 L166.624,36.869125 C166.624,36.508375 166.804375,36.328 167.165125,36.328 L173.954875,36.328 Z M170.717313,34.78 C171.084438,34.78 171.268,34.9635625 171.268,35.3306875 L171.268,45.2693125 C171.268,45.6364375 171.084438,45.82 170.717313,45.82 L170.402688,45.82 C170.035563,45.82 169.852,45.6364375 169.852,45.2693125 L169.852,35.3306875 C169.852,34.9635625 170.035563,34.78 170.402688,34.78 L170.717313,34.78 Z M168.533313,38.1810625 C168.900438,38.2320625 169.061688,38.4379375 169.017063,38.7986875 C168.725813,40.8413125 168.253563,42.78775 167.600313,44.638 C167.482188,44.986 167.249938,45.095375 166.903563,44.966125 L166.608438,44.849875 C166.266813,44.719 166.160625,44.480375 166.289875,44.134 C166.6165,43.220125 166.89225,42.2838438 167.117125,41.3251563 C167.342,40.3664688 167.503313,39.469125 167.601063,38.633125 C167.652063,38.264375 167.857938,38.1023125 168.218688,38.1469375 L168.533313,38.1810625 Z M172.901313,38.1469375 C173.262063,38.1023125 173.467938,38.2635625 173.518938,38.6306875 C173.792563,40.5660625 174.232813,42.4005 174.839688,44.134 C174.956188,44.48675 174.846813,44.725375 174.511563,44.849875 L174.216438,44.966125 C173.870063,45.095375 173.637813,44.986 173.519688,44.638 C173.172313,43.673 172.878188,42.67875 172.637313,41.65525 C172.396438,40.63175 172.221563,39.680375 172.112688,38.801125 C172.055188,38.43875 172.213188,38.2320625 172.586688,38.1810625 L172.901313,38.1469375 Z M172.188438,42.448 C172.542813,42.448 172.72,42.6251875 172.72,42.9795625 L172.72,43.2844375 C172.72,43.6388125 172.542813,43.816 172.188438,43.816 L168.931563,43.816 C168.577188,43.816 168.4,43.6388125 168.4,43.2844375 L168.4,42.9795625 C168.4,42.6251875 168.577188,42.448 168.931563,42.448 L172.188438,42.448 Z M165.509313,39.004 C165.876438,39.004 166.06,39.1875625 166.06,39.5546875 L166.06,45.2813125 C166.06,45.6484375 165.876438,45.832 165.509313,45.832 L165.194688,45.832 C164.827563,45.832 164.644,45.6484375 164.644,45.2813125 L164.644,39.5546875 C164.644,39.1875625 164.827563,39.004 165.194688,39.004 L165.509313,39.004 Z M166.426,34.936375 C166.6,35.021 166.716125,35.1147813 166.774375,35.2177188 C166.832625,35.3206563 166.83225,35.4559375 166.77325,35.6235625 C166.4435,36.6126875 166.074563,37.5866563 165.666438,38.5454688 C165.258313,39.5042813 164.846813,40.3728125 164.431938,41.1510625 C164.353813,41.2930625 164.247719,41.37725 164.113656,41.403625 C163.979594,41.43 163.851063,41.38175 163.728063,41.258875 L163.488438,40.9973125 C163.231438,40.7386875 163.183563,40.4458125 163.344813,40.1186875 C164.140688,38.6121875 164.8355,36.970625 165.42925,35.194 C165.48825,35.013625 165.578813,34.8895 165.700938,34.821625 C165.823063,34.75375 165.96475,34.7589375 166.126,34.8371875 L166.426,34.936375 Z M184.101312,42.292 C184.468437,42.292 184.652,42.4755625 184.652,42.8426875 L184.652,43.1573125 C184.652,43.5244375 184.468437,43.708 184.101312,43.708 L179.898687,43.708 C179.531562,43.708 179.348,43.5244375 179.348,43.1573125 L179.348,42.8426875 C179.348,42.4755625 179.531562,42.292 179.898687,42.292 L184.101312,42.292 Z M186.777312,36.352 C187.144437,36.352 187.328,36.5355625 187.328,36.9026875 L187.328,37.2173125 C187.328,37.5844375 187.144437,37.768 186.777312,37.768 L177.222687,37.768 C176.855562,37.768 176.672,37.5844375 176.672,37.2173125 L176.672,36.9026875 C176.672,36.5355625 176.855562,36.352 177.222687,36.352 L186.777312,36.352 Z M182.162187,34.78 C182.542062,34.78 182.732,34.9699375 182.732,35.3498125 L182.732,45.2501875 C182.732,45.6300625 182.542062,45.82 182.162187,45.82 L181.837812,45.82 C181.457937,45.82 181.268,45.6300625 181.268,45.2501875 L181.268,35.3498125 C181.268,34.9699375 181.457937,34.78 181.837812,34.78 L182.162187,34.78 Z M179.589312,38.4450625 C179.956437,38.5216875 180.101687,38.7435625 180.025062,39.1106875 C179.797812,40.1191875 179.498531,41.105625 179.127219,42.07 C178.755906,43.034375 178.322062,43.9351875 177.825687,44.7724375 C177.630937,45.0948125 177.376375,45.15625 177.062,44.95675 L176.786,44.78725 C176.624875,44.6835 176.529531,44.5689688 176.499969,44.4436563 C176.470406,44.3183438 176.504312,44.1719375 176.601687,44.0044375 C177.102687,43.1609375 177.523656,42.28625 177.864594,41.380375 C178.205531,40.4745 178.452875,39.62275 178.606625,38.825125 C178.6865,38.456375 178.909187,38.3103125 179.274687,38.3869375 L179.589312,38.4450625 Z M184.725312,38.3869375 C185.092437,38.3103125 185.314312,38.4555625 185.390937,38.8226875 C185.808562,40.7149375 186.477687,42.4421875 187.398312,44.0044375 C187.495687,44.1719375 187.529594,44.3183438 187.500031,44.4436563 C187.470469,44.5689688 187.375125,44.6835 187.214,44.78725 L186.938,44.95675 C186.623625,45.15625 186.369062,45.0948125 186.174312,44.7724375 C185.633312,43.8569375 185.172344,42.89825 184.791406,41.896375 C184.410469,40.8945 184.139125,39.96675 183.977375,39.113125 C183.899125,38.744375 184.043562,38.5216875 184.410687,38.4450625 L184.725312,38.3869375 Z M190.356,41.5526875 C190.356,40.8535625 190.705562,40.504 191.404687,40.504 L198.595312,40.504 C199.294437,40.504 199.644,40.8535625 199.644,41.5526875 L199.644,44.5433125 C199.644,45.2424375 199.294437,45.592 198.595312,45.592 L191.404687,45.592 C190.705562,45.592 190.356,45.2424375 190.356,44.5433125 L190.356,41.5526875 Z M198.156,44.176 L198.156,41.92 L191.844,41.92 L191.844,44.176 L198.156,44.176 Z M192.9945,34.86775 C193.253125,34.57725 193.530062,34.5573125 193.825312,34.8079375 L194.086687,35.0160625 C194.383562,35.2683125 194.4035,35.5420625 194.1465,35.8373125 L192.42,37.804 L198.516,37.804 L198.516,37.0105 C198.516,36.6115 198.7155,36.412 199.1145,36.412 L199.4535,36.412 C199.8525,36.412 200.052,36.6115 200.052,37.0105 L200.052,38.1810625 C200.052,38.5401875 199.960625,38.811125 199.777875,38.993875 C199.595125,39.176625 199.324187,39.268 198.965062,39.268 L191.080687,39.268 C190.708812,39.268 190.428719,39.2053438 190.240406,39.0800313 C190.052094,38.9547188 189.972312,38.7799375 190.001062,38.5556875 C190.029812,38.3314375 190.171812,38.0756875 190.427062,37.7884375 L192.9945,34.86775 Z" id="形状结合"></path>
            </g>
        </g>
    </g>
</svg>